<svg width="33" height="33" viewBox="0 0 33 33" fill="none" xmlns="http://www.w3.org/2000/svg">
<g clip-path="url(#clip0)">
<circle cx="16.5" cy="16.5" r="16.5" fill="white"/>
<path d="M26.392 13.492H20.56V8.848C20.56 8.368 20.488 8.068 20.344 7.948C20.2 7.804 19.9 7.732 19.444 7.732H13.612C13.156 7.732 12.856 7.804 12.712 7.948C12.568 8.068 12.496 8.368 12.496 8.848V24.76C12.496 25.24 12.568 25.552 12.712 25.696C12.856 25.816 13.156 25.876 13.612 25.876H19.444C19.9 25.876 20.2 25.816 20.344 25.696C20.488 25.552 20.56 25.24 20.56 24.76V20.152H26.392V25.156C26.392 27.052 25.444 28 23.548 28H9.508C7.612 28 6.664 27.052 6.664 25.156V8.452C6.664 6.556 7.612 5.608 9.508 5.608H23.548C25.444 5.608 26.392 6.556 26.392 8.452V13.492Z" fill="#07A7B1"/>
</g>
<defs>
<clipPath id="clip0">
<rect width="33" height="33" fill="white"/>
</clipPath>
</defs>
</svg>
